<?xml version="1.0" standalone="no"?>
<!DOCTYPE svg PUBLIC "-//W3C//DTD SVG 20010904//EN"
 "http://www.w3.org/TR/2001/REC-SVG-20010904/DTD/svg10.dtd">
<svg version="1.0" xmlns="http://www.w3.org/2000/svg"
 width="200.000000pt" height="200.000000pt" viewBox="0 0 200.000000 200.000000"
 preserveAspectRatio="xMidYMid meet">

<g transform="translate(0.000000,200.000000) scale(0.100000,-0.100000)"
fill="#000000" stroke="none">
<path d="M0 1000 l0 -1000 1000 0 1000 0 0 1000 0 1000 -1000 0 -1000 0 0
-1000z m976 535 c36 -82 80 -188 97 -235 16 -47 31 -87 33 -89 2 -2 26 11 53
28 l50 32 50 -33 c28 -18 51 -36 51 -40 0 -5 -14 -8 -31 -8 l-32 0 7 -72 c4
-40 10 -89 13 -109 5 -35 4 -35 -86 -95 -56 -37 -92 -67 -96 -81 -3 -12 -10
-34 -15 -49 l-11 -27 -27 25 c-25 23 -39 26 -182 37 -144 11 -170 15 -159 25
2 2 68 36 147 75 78 40 142 77 142 82 0 5 -19 31 -42 57 -23 26 -51 57 -61 69
-13 15 -36 100 -73 269 -30 136 -51 250 -49 253 3 3 31 -21 63 -52 32 -31 61
-57 65 -57 4 0 7 37 7 82 0 52 4 78 9 73 6 -6 40 -77 77 -160z m-206 -895 c0
-5 -4 -10 -10 -10 -5 0 -10 5 -10 10 0 6 5 10 10 10 6 0 10 -4 10 -10z m140
-86 c0 -78 -3 -95 -14 -91 -7 3 -19 0 -25 -6 -19 -19 -41 20 -41 72 0 57 11
76 39 68 18 -4 21 -1 21 24 0 16 5 29 10 29 6 0 10 -39 10 -96z m340 0 c0 -78
-3 -95 -14 -91 -7 3 -19 0 -25 -6 -29 -28 -52 56 -34 121 4 18 11 23 29 19 21
-4 24 0 24 24 0 16 5 29 10 29 6 0 10 -39 10 -96z m-620 49 l1 -38 20 38 c11
20 24 37 29 37 6 0 2 -17 -9 -38 -17 -32 -17 -42 -6 -68 22 -53 27 -74 16 -74
-5 0 -15 16 -21 35 -6 19 -16 35 -21 35 -5 0 -9 -16 -9 -35 0 -19 -4 -35 -10
-35 -6 0 -10 37 -10 90 0 53 4 90 10 90 6 0 10 -17 10 -37z m463 30 c-19 -4
-23 -11 -23 -39 0 -27 4 -34 20 -34 11 0 20 -4 20 -10 0 -5 -9 -10 -20 -10
-16 0 -20 -7 -20 -34 0 -28 4 -35 23 -39 16 -3 13 -5 -10 -6 l-33 -1 0 90 0
90 33 -1 c23 -1 26 -3 10 -6z m-323 -103 c0 -40 -4 -70 -10 -70 -6 0 -10 30
-10 70 0 40 4 70 10 70 6 0 10 -30 10 -70z m560 10 c0 -45 4 -62 15 -66 19 -8
19 -24 0 -24 -8 0 -19 9 -25 19 -13 25 -13 131 0 131 6 0 10 -27 10 -60z m50
-12 c0 -40 -4 -68 -8 -62 -8 9 -4 134 4 134 2 0 4 -32 4 -72z m-66 -150 c-1
-13 -3 -36 -4 -53 -3 -30 -3 -30 -9 5 -4 19 -3 43 1 53 12 23 15 22 12 -5z
m-741 5 c-7 -2 -13 -11 -13 -19 0 -8 6 -14 13 -14 8 0 8 -3 -2 -9 -8 -5 -11
-16 -8 -25 4 -9 2 -16 -3 -16 -6 0 -10 20 -10 45 0 36 3 45 18 44 10 0 12 -3
5 -6z m75 -40 c-1 -37 -2 -41 -5 -15 -2 18 -9 30 -14 27 -13 -9 -11 3 4 20 17
20 17 20 15 -32z m253 -10 l-5 -38 -6 35 c-7 39 -1 68 9 51 4 -6 5 -28 2 -48z
m-204 -15 c-2 -13 -4 -5 -4 17 -1 22 1 32 4 23 2 -10 2 -28 0 -40z m20 0 c-2
-13 -4 -5 -4 17 -1 22 1 32 4 23 2 -10 2 -28 0 -40z m67 44 c3 -5 -1 -9 -9 -9
-8 0 -15 4 -15 9 0 4 4 8 9 8 6 0 12 -4 15 -8z m65 -29 c-1 -23 -3 -30 -7 -18
l-5 20 -8 -20 c-7 -19 -8 -19 -8 2 -1 12 5 24 12 26 9 4 8 8 -3 16 -13 9 -13
11 3 11 13 0 17 -8 16 -37z m161 26 c0 -5 -4 -8 -9 -4 -5 3 -12 -9 -14 -27 -4
-33 -4 -33 -5 5 -2 27 2 37 13 37 8 0 15 -5 15 -11z m70 0 c0 -5 -4 -8 -9 -4
-5 3 -12 -9 -14 -27 -4 -33 -4 -33 -5 5 -2 27 2 37 13 37 8 0 15 -5 15 -11z
m150 0 c0 -5 -4 -7 -10 -4 -5 3 -10 2 -10 -4 0 -5 5 -13 10 -16 6 -3 9 -14 9
-23 -1 -15 -2 -15 -6 1 -2 9 -9 17 -14 17 -5 0 -9 9 -9 20 0 11 7 20 15 20 8
0 15 -5 15 -11z m147 -41 c-2 -13 -4 -5 -4 17 -1 22 1 32 4 23 2 -10 2 -28 0
-40z m71 15 c-1 -38 -1 -38 -5 -5 -3 20 -8 30 -15 26 -7 -4 -8 -2 -4 4 14 24
26 11 24 -25z"/>
<path d="M818 1403 c24 -115 48 -211 51 -215 4 -5 40 38 81 94 l73 101 -119
113 c-65 62 -122 113 -125 114 -3 0 14 -93 39 -207z"/>
<path d="M1173 1229 c-18 -12 -33 -23 -33 -25 0 -2 29 -4 65 -4 36 0 65 4 65
8 0 7 -52 42 -62 42 -1 0 -18 -10 -35 -21z"/>
<path d="M1149 1085 c17 -48 32 -77 44 -80 9 -3 26 -8 37 -11 18 -5 20 -1 20
34 0 36 -5 43 -59 86 -33 25 -61 46 -64 46 -2 0 8 -34 22 -75z"/>
<path d="M865 917 l-140 -71 59 -7 58 -7 147 79 146 79 -65 -1 c-61 0 -75 -5
-205 -72z"/>
<path d="M1046 825 c-17 -13 -15 -35 3 -35 8 0 23 41 18 46 -1 1 -10 -4 -21
-11z"/>
<path d="M857 584 c-11 -12 -8 -102 4 -110 15 -9 29 15 29 52 0 32 -21 70 -33
58z"/>
<path d="M1197 584 c-11 -12 -8 -102 4 -110 15 -9 29 15 29 52 0 32 -21 70
-33 58z"/>
</g>
</svg>
